HIERARCHY
ROOT Hips
{
	OFFSET 0.00000 0.00000 0.00000
	CHANNELS 6 Xposition Yposition Zposition Zrotation Yrotation Xrotation 
	JOINT LHipJoint
	{
		OFFSET 0 0 0
		CHANNELS 3 Zrotation Yrotation Xrotation
		JOINT LeftUpLeg
		{
			OFFSET 3.13874 -1.57224 1.49786
			CHANNELS 3 Zrotation Yrotation Xrotation
			JOINT LeftLeg
			{
				OFFSET 2.10955 -5.79594 0.00000
				CHANNELS 3 Zrotation Yrotation Xrotation
				JOINT LeftFoot
				{
					OFFSET 2.41843 -6.64458 0.00000
					CHANNELS 3 Zrotation Yrotation Xrotation
					JOINT LeftToeBase
					{
						OFFSET 0.04713 -0.12948 1.66229
						CHANNELS 3 Zrotation Yrotation Xrotation
						End Site
						{
							OFFSET 0.00000 -0.00000 0.85167
						}
					}
				}
			}
		}
	}
	JOINT RHipJoint
	{
		OFFSET 0 0 0
		CHANNELS 3 Zrotation Yrotation Xrotation
		JOINT RightUpLeg
		{
			OFFSET -3.13988 -1.57224 1.49786
			CHANNELS 3 Zrotation Yrotation Xrotation
			JOINT RightLeg
			{
				OFFSET -2.15006 -5.90725 0.00000
				CHANNELS 3 Zrotation Yrotation Xrotation
				JOINT RightFoot
				{
					OFFSET -2.34496 -6.44273 0.00000
					CHANNELS 3 Zrotation Yrotation Xrotation
					JOINT RightToeBase
					{
						OFFSET -0.08699 -0.23900 1.55223
						CHANNELS 3 Zrotation Yrotation Xrotation
						End Site
						{
							OFFSET -0.00000 -0.00000 0.80281
						}
					}
				}
			}
		}
	}
	JOINT LowerBack
	{
		OFFSET 0 0 0
		CHANNELS 3 Zrotation Yrotation Xrotation
		JOINT Spine
		{
			OFFSET 0.01292 1.96517 -0.16495
			CHANNELS 3 Zrotation Yrotation Xrotation
			JOINT Spine1
			{
				OFFSET 0.02122 1.88666 0.19706
				CHANNELS 3 Zrotation Yrotation Xrotation
				JOINT Neck
				{
					OFFSET 0 0 0
					CHANNELS 3 Zrotation Yrotation Xrotation
					JOINT Neck1
					{
						OFFSET -0.01683 1.81591 0.07903
						CHANNELS 3 Zrotation Yrotation Xrotation
						JOINT Head
						{
							OFFSET 0.00815 1.74013 -0.47700
							CHANNELS 3 Zrotation Yrotation Xrotation
							End Site
							{
								OFFSET -0.00204 1.83225 -0.16933
							}
						}
					}
				}
				JOINT LeftShoulder
				{
					OFFSET 0 0 0
					CHANNELS 3 Zrotation Yrotation Xrotation
					JOINT LeftArm
					{
						OFFSET 3.38482 1.41533 0.19802
						CHANNELS 3 Zrotation Yrotation Xrotation
						JOINT LeftForeArm
						{
							OFFSET 4.32712 -0.00000 0.00000
							CHANNELS 3 Zrotation Yrotation Xrotation
							JOINT LeftHand
							{
								OFFSET 3.28587 -0.00000 -0.00000
								CHANNELS 3 Zrotation Yrotation Xrotation
								JOINT LeftFingerBase
								{
									OFFSET 0 0 0
									CHANNELS 3 Zrotation Yrotation Xrotation
									JOINT LeftHandIndex1
									{
										OFFSET 0.43316 -0.00000 -0.00000
										CHANNELS 3 Zrotation Yrotation Xrotation
										End Site
										{
											OFFSET 0.34922 -0.00000 -0.00000
										}
									}
								}
								JOINT LThumb
								{
									OFFSET 0 0 0
									CHANNELS 3 Zrotation Yrotation Xrotation
									End Site
									{
										OFFSET 0.35456 -0.00000 0.35456
									}
								}
							}
						}
					}
				}
				JOINT RightShoulder
				{
					OFFSET 0 0 0
					CHANNELS 3 Zrotation Yrotation Xrotation
					JOINT RightArm
					{
						OFFSET -3.09725 1.62858 -0.14144
						CHANNELS 3 Zrotation Yrotation Xrotation
						JOINT RightForeArm
						{
							OFFSET -4.29104 -0.00000 0.00000
							CHANNELS 3 Zrotation Yrotation Xrotation
							JOINT RightHand
							{
								OFFSET -3.22720 -0.00000 -0.00000
								CHANNELS 3 Zrotation Yrotation Xrotation
								JOINT RightFingerBase
								{
									OFFSET 0 0 0
									CHANNELS 3 Zrotation Yrotation Xrotation
									JOINT RightHandIndex1
									{
										OFFSET -0.54362 -0.00000 -0.00000
										CHANNELS 3 Zrotation Yrotation Xrotation
										End Site
										{
											OFFSET -0.43828 -0.00000 -0.00000
										}
									}
								}
								JOINT RThumb
								{
									OFFSET 0 0 0
									CHANNELS 3 Zrotation Yrotation Xrotation
									End Site
									{
										OFFSET -0.44497 -0.00000 0.44497
									}
								}
							}
						}
					}
				}
			}
		}
	}
}
MOTION
Frames: 7
Frame Time: .0083333
32.0444 15.8103 3.4643 -169.7010 55.5498 -162.0340 0.0000 0.0000 0.0000 -28.8521 -17.2512 -13.3374 0.7822 5.6463 15.7615 2.5334 -4.4691 -29.0956 3.9332 -12.0710 -35.9838 0.0000 0.0000 0.0000 30.6190 -14.1472 -19.8417 -6.3514 -14.7605 46.3764 -0.0196 -1.2972 -3.4553 -6.5448 14.9363 -47.1311 1.1458 5.8492 7.0486 -2.6337 8.3861 -10.7344 -5.2853 3.8096 -15.2930 12.4547 7.2872 -13.8996 -3.9697 11.3566 34.3960 -1.5794 6.7639 15.3487 0.0000 0.0000 0.0000 -69.0757 23.6656 7.5383 14.3791 -23.2741 -2.9763 -0.0000 0.0000 -0.2669 26.8269 22.7696 11.0745 -7.1250 0.0000 -0.0000 -2.3606 55.1547 -0.5888 0.0000 0.0000 0.0000 67.9718 -6.1974 62.1482 -29.4288 40.3988 -11.0376 0.0000 0.0000 0.9820 -27.5621 -9.6929 5.0221 7.1250 -0.0000 -0.0000 -0.5158 -40.8849 -0.0523
32.1860 15.8329 3.4682 -170.1270 55.0484 -162.6710 0.0000 0.0000 0.0000 -29.0211 -17.5579 -12.0993 0.7459 5.5169 15.3888 2.5898 -5.0272 -29.3439 3.8033 -11.8939 -35.3577 0.0000 0.0000 0.0000 29.5725 -12.0937 -20.6003 -6.3758 -14.7829 46.4720 -0.0247 -4.5143 -7.2824 -7.4792 15.7225 -50.6642 0.9509 5.6729 7.1992 -2.4958 8.1248 -10.6595 -4.9941 3.7110 -15.3685 12.4877 7.2416 -13.7326 -3.9027 11.3203 34.5098 -1.5676 6.7793 15.3582 0.0000 0.0000 0.0000 -68.6218 22.8251 7.8338 14.9644 -24.0965 -3.2114 -0.0000 0.0000 -1.0309 26.7633 19.6648 9.6323 -7.1250 0.0000 -0.0000 -1.6284 51.7856 -0.2722 0.0000 0.0000 0.0000 67.9167 -7.3013 60.4709 -29.3485 40.3284 -10.9855 0.0000 0.0000 0.8176 -27.7036 -9.7816 5.0978 7.1250 -0.0000 -0.0000 -0.6353 -40.9977 -0.0627
32.3267 15.8559 3.4762 -170.5800 54.4266 -163.3390 0.0000 0.0000 0.0000 -29.2068 -17.8795 -10.8381 0.7043 5.3639 14.9495 2.6238 -5.3225 -29.5015 3.7568 -11.8295 -35.1316 0.0000 0.0000 0.0000 28.4900 -9.8073 -20.9169 -6.1700 -14.5911 45.6601 0.0708 -8.1404 -10.0274 -8.2232 16.2810 -53.3628 0.7256 5.5036 7.3661 -2.3667 7.8673 -10.5827 -4.6972 3.6171 -15.4518 12.4786 7.1655 -13.6038 -3.8334 11.2374 34.6088 -1.5559 6.7683 15.3604 -0.0000 0.0000 0.0000 -68.2271 21.9268 8.3098 15.6156 -24.9966 -3.4819 -0.0000 0.0000 -1.6577 27.0673 17.3562 8.6673 -7.1250 0.0000 -0.0000 -0.8624 49.3180 -0.0918 -0.0000 0.0000 0.0000 67.8826 -8.4783 58.8489 -29.2616 40.2520 -10.9294 0.0000 0.0000 0.6573 -27.7766 -9.9042 5.1767 7.1250 -0.0000 -0.0000 -0.6917 -41.1422 -0.0658
32.4667 15.8792 3.4877 -171.0150 53.7001 -163.9780 0.0000 0.0000 0.0000 -29.3738 -18.2100 -9.5674 0.6562 5.1812 14.4261 2.6409 -5.2130 -29.6180 3.8502 -11.9584 -35.5850 0.0000 0.0000 0.0000 27.4015 -7.2917 -20.7804 -5.7414 -14.1730 43.9348 0.2847 -11.6714 -11.6529 -8.8274 16.6954 -55.4914 0.4912 5.3368 7.5338 -2.2480 7.6114 -10.5124 -4.4060 3.5248 -15.5404 12.4731 7.0745 -13.5100 -3.7814 11.1248 34.6864 -1.5566 6.7405 15.3588 0.0000 -0.0000 0.0000 -67.8743 21.0188 9.0155 16.3370 -25.9755 -3.7924 -0.0000 0.0000 -2.2167 27.6139 15.8185 8.1151 -7.1250 0.0000 -0.0000 -0.0816 47.7109 -0.0055 0.0000 -0.0000 0.0000 67.8866 -9.7018 57.3317 -29.1581 40.1608 -10.8626 0.0000 0.0000 0.5191 -27.7611 -10.0354 5.2407 7.1250 -0.0000 -0.0000 -0.6685 -41.2878 -0.0612
32.6063 15.9029 3.5013 -171.4250 52.8913 -164.5690 0.0000 0.0000 0.0000 -29.5218 -18.5575 -8.2899 0.6025 4.9686 13.8191 2.6476 -4.7372 -29.7305 4.0702 -12.2533 -36.6339 0.0000 0.0000 0.0000 26.3082 -4.5780 -20.2469 -5.1453 -13.5456 41.4466 0.0430 -11.3695 -15.5536 -7.4176 15.6737 -50.4367 0.2616 5.1759 7.6904 -2.1451 7.3637 -10.4539 -4.1344 3.4360 -15.6300 12.4755 6.9742 -13.4572 -3.7421 10.9878 34.7488 -1.5672 6.6992 15.3584 -0.0000 0.0000 0.0000 -67.5740 20.1230 9.8628 17.1209 -27.0168 -4.1421 -0.0000 0.0000 -2.6963 28.5527 16.2701 8.6681 -7.1250 0.0000 -0.0000 0.7670 48.3580 0.0635 -0.0000 0.0000 0.0000 67.9274 -10.9572 55.9516 -29.0335 40.0505 -10.7823 0.0000 0.0000 0.3962 -27.6612 -10.1512 5.2779 7.1250 -0.0000 -0.0000 -0.5709 -41.4075 -0.0506
32.7455 15.9269 3.5155 -171.8220 52.0179 -165.1120 0.0000 0.0000 0.0000 -29.6654 -18.9549 -7.0021 0.5459 4.7337 13.1506 2.6519 -4.1447 -29.8569 4.3219 -12.5768 -37.8044 0.0000 0.0000 0.0000 25.2180 -1.8053 -19.4797 -4.4656 -12.7555 38.4600 -0.3531 -9.9400 -18.8792 -5.8194 14.2510 -44.2524 0.0420 5.0270 7.8212 -2.0606 7.1332 -10.4061 -3.8881 3.3547 -15.7086 12.4696 6.8641 -13.4545 -3.7085 10.8275 34.8027 -1.5814 6.6437 15.3626 -0.0000 0.0000 0.0000 -67.3715 19.2328 10.6587 17.9569 -28.1020 -4.5289 -0.0000 0.0000 -3.0785 29.5452 18.3120 10.0978 -7.1250 0.0000 -0.0000 1.4572 50.8017 0.2083 -0.0000 0.0000 0.0000 67.9936 -12.2410 54.7167 -28.8883 39.9213 -10.6890 0.0000 0.0000 0.2969 -27.5257 -10.2379 5.2919 7.1250 -0.0000 -0.0000 -0.4433 -41.4911 -0.0384
32.8849 15.9502 3.5300 -172.1770 51.0870 -165.5790 0.0000 0.0000 0.0000 -29.7775 -19.4136 -5.7302 0.4902 4.4893 12.4576 2.6621 -3.6919 -30.0018 4.5180 -12.8196 -38.6968 0.0000 0.0000 0.0000 24.1619 0.9742 -18.4958 -3.7376 -11.8027 35.0377 -0.7744 -8.1427 -21.5055 -4.1532 12.3615 -37.0230 -0.1476 4.8920 7.9146 -1.9827 6.9275 -10.3694 -3.6656 3.2832 -15.7687 12.4266 6.7447 -13.4934 -3.6759 10.6514 34.8409 -1.5915 6.5742 15.3642 -0.0000 0.0000 0.0000 -67.2649 18.3563 11.4603 18.8170 -29.1907 -4.9413 -0.0000 0.0000 -3.4784 30.4191 21.0476 11.9074 -7.1250 0.0000 -0.0000 1.8998 54.0184 0.4213 -0.0000 0.0000 0.0000 68.0731 -13.5461 53.6088 -28.7226 39.7730 -10.5828 0.0000 0.0000 0.2531 -27.3819 -10.2861 5.2841 7.1250 -0.0000 -0.0000 -0.3110 -41.5306 -0.0266
